<?xml version="1.0" encoding="utf-8"?><svg xml:space="preserve" viewBox="0 0 100 100" y="0" x="0" xmlns="http://www.w3.org/2000/svg" id="圖層_1" version="1.1" width="128px" height="128px" xmlns:xlink="http://www.w3.org/1999/xlink" style="width:100%;height:100%;background-color:rgb(241, 242, 243);animation-play-state:paused" ><g class="ldl-scale" style="transform-origin:50% 50% 0px;transform:rotate(0deg) scale(0.8);animation-play-state:paused" ><path fill="#d1d1d1" d="M73.248 49.24c-.626 0-1.245.033-1.856.091 3.577-.591 6.074-3.464 5.94-7.042-.102-2.716-1.959-4.541-4.621-4.541-.575 0-1.124.075-1.656.147-.455.062-.884.12-1.284.128l-.161.001c-1.69 0-4.149-.289-4.752-.505-1.112-.406-1.261-.559-1.449-3.201-.031-.438-.066-.91-.119-1.399 1.202.483 2.511.754 3.881.761h.056c6.054 0 10.806-4.71 10.817-10.721a10.577 10.577 0 0 0-3.147-7.571 10.712 10.712 0 0 0-7.598-3.131c-4.805 0-8.887 3.176-10.247 7.535a8.733 8.733 0 0 0-2.775-.988c-1.15-.2-2.33-.33-3.507-.386a18.572 18.572 0 0 0-.885-.021c-4.829 0-9.962 1.9-14.082 5.213a24.46 24.46 0 0 0-8.667 14.315l-.101.511c-.516 2.597-1.101 5.54-.381 8.435.211.85.526 1.646.938 2.39a19.541 19.541 0 0 0-.841-.022C16.137 49.24 7.5 57.876 7.5 68.492s8.637 19.252 19.252 19.252c9.935 0 18.136-7.566 19.146-17.239 1.117 2.004 3.021 3.548 5.5 3.548a5.925 5.925 0 0 0 3.161-.942c2.075 8.392 9.665 14.633 18.688 14.633 10.615 0 19.251-8.636 19.252-19.252.001-10.616-8.635-19.252-19.251-19.252zm-16.752 9.783c-.441-2.665-.879-5.324-1.316-8.004-.525-3.22-2.47-4.776-4.008-5.514-1.389-.666-2.519-1.212-3.59-1.729-1.307-.63-2.526-1.218-4.017-1.931.071-.271.137-.565.189-.879.594-3.617 1.994-4.207 5.061-5.502l.343-.145c1.74 6.09 5.116 10.486 9.612 12.469 3.347 1.476 6.703 1.719 9.253 1.766l.115.002.816-.043c.476-.026.952-.051 1.428-.071.101-.004.197-.018.297-.026-6.084.816-11.274 4.481-14.183 9.607z" style="fill:rgb(30, 45, 109);animation-play-state:paused" ></path>
<g style="animation-play-state:paused" ><path fill="#454545" d="M26.753 59.175c5.137 0 9.316 4.179 9.316 9.316s-4.179 9.316-9.316 9.316-9.316-4.179-9.316-9.316c-.001-5.136 4.178-9.316 9.316-9.316m0-6.623c-8.803 0-15.94 7.136-15.94 15.94 0 8.803 7.137 15.94 15.94 15.94s15.939-7.137 15.939-15.94c0-8.804-7.136-15.94-15.939-15.94z" style="fill:rgb(45, 101, 188);animation-play-state:paused" ></path></g>
<g style="animation-play-state:paused" ><path fill="#454545" d="M73.249 59.175c5.136 0 9.315 4.18 9.316 9.317 0 5.137-4.179 9.316-9.316 9.316-5.137 0-9.316-4.179-9.316-9.316s4.178-9.317 9.316-9.317m-.001-6.624c-8.803 0-15.94 7.137-15.94 15.941 0 8.803 7.137 15.94 15.94 15.94s15.939-7.136 15.94-15.939c0-8.804-7.136-15.941-15.94-15.942z" style="fill:rgb(45, 101, 188);animation-play-state:paused" ></path></g>
<path fill="#454545" d="M67.31 15.568c4.104.005 7.433 3.315 7.425 7.383-.008 4.166-3.335 7.436-7.545 7.416-4.025-.02-7.317-3.363-7.307-7.419.011-4.086 3.33-7.384 7.427-7.38z" style="fill:rgb(45, 101, 188);animation-play-state:paused" ></path>
<path fill="#454545" d="M69.831 41.334c-1.492.026-4.813-.232-6.106-.704-4.271-1.559-3.252-5.147-3.871-8.376-.02-.101-.047-.203-.071-.304a12.366 12.366 0 0 1-3.875-8.976 5.532 5.532 0 0 0-2.195-.906 25.165 25.165 0 0 0-3.099-.341c-8.245-.395-18.095 6.001-20.226 16.838-.972 4.942-2.291 10.107 5.206 13.017 2.505.972 2.922 1.17 8.806 2.371.463.095.669.449.707.945.609 7.883 2.327 6.144 3.018 11.953.238 2.005 1.77 4.224 3.704 3.85 1.968-.381 2.782-2.806 2.455-4.777-.796-4.79-1.59-9.579-2.371-14.371-.226-1.386-.88-2.441-2.172-3.061-3.608-1.731-5.474-2.647-9.088-4.366-1.459-.694-.43-2.086-.165-3.696 1.251-7.62 6.462-6.941 11.078-10.057.124 1.552.413 2.613.413 2.613 1.084 4.738 3.548 9.752 8.13 11.772 2.539 1.119 5.233 1.434 7.978 1.484.721-.037 1.44-.08 2.161-.11 2.252-.094 3.855-1.669 3.778-3.72-.083-2.128-1.922-1.119-4.195-1.078z" style="fill:rgb(45, 101, 188);animation-play-state:paused" ></path>
<metadata xmlns:d="https://loading.io/stock/" style="animation-play-state:paused" ><d:name style="animation-play-state:paused" >bicycle</d:name>
<d:tags style="animation-play-state:paused" >travel,race,bike,commute,bicycle,map</d:tags>
<d:license style="animation-play-state:paused" >free</d:license>
<d:slug style="animation-play-state:paused" >ubebm0</d:slug></metadata></g><!-- generated by https://loading.io/ --></svg>